HIERARCHY
ROOT Hips
{
	OFFSET 0.00000 0.00000 0.00000
	CHANNELS 6 Xposition Yposition Zposition Yrotation Zrotation Xrotation 
	JOINT Lumbar
	{
		OFFSET 0 0 0
		CHANNELS 3 Zrotation Xrotation Yrotation
		JOINT Neck
		{
			OFFSET 0.00 0.2701 0.00
			CHANNELS 3 Zrotation Xrotation Yrotation
			End Site
			{
				OFFSET 0.00 0.1379 0.00
			}
		}
		JOINT RightShoulder
		{
			OFFSET 0.0119 0.2289 0.1181
			CHANNELS 3 Zrotation Xrotation Yrotation
			JOINT RightElbow
			{
				OFFSET 0.00 -0.1475 0.00
				CHANNELS 2 Zrotation Yrotation
				JOINT RightWrist
				{
					OFFSET 0.00 -0.1605 0.00
					CHANNELS 2 Zrotation Xrotation
					End Site
					{
						OFFSET 0.0040 -0.1068 0.0006
					}
				}
			}
		}
		JOINT LeftShoulder
		{
			OFFSET 0.0119 0.2289 -0.1181
			CHANNELS 3 Zrotation Xrotation Yrotation
			JOINT LeftElbow
			{
				OFFSET 0.00 -0.1475 0.00
				CHANNELS 2 Zrotation Yrotation
				JOINT LeftWrist
				{
					OFFSET 0.00 -0.1605 0.00
					CHANNELS 2 Zrotation Xrotation
					End Site
					{
						OFFSET 0.0040 -0.1068 -0.0006
					}
				}
			}
		}
	}
	JOINT RightHip
	{
		OFFSET 0.0316 -0.0424 0.0458
		CHANNELS 3 Zrotation Xrotation Yrotation
		JOINT RightKnee
		{
			OFFSET 0.00 -0.2438 0.00
			CHANNELS 1 Zrotation
			JOINT RightAnkle
			{
				OFFSET 0.00 -0.2449 0.00
				CHANNELS 3 Zrotation Xrotation Yrotation
				End Site
				{
					OFFSET 0.1237 -0.0542 0.0051
				}
			}
		}
	}
	JOINT LeftHip
	{
		OFFSET 0.0316 -0.0424 -0.0458
		CHANNELS 3 Zrotation Xrotation Yrotation
		JOINT LeftKnee
		{
			OFFSET 0.00 -0.2438 0.00
			CHANNELS 1 Zrotation
			JOINT LeftAnkle
			{
				OFFSET 0.00 -0.2449 0.00
				CHANNELS 3 Zrotation Xrotation Yrotation
				End Site
				{
					OFFSET 0.1237 -0.0542 -0.0051
				}
			}
		}
	}
}
MOTION
Frames: 11
Frame Time: 0.02
0.37584 0.34101 0.01274 176.88128 0 -3.7091 15.38946 8.15655 0.63657 -27.49337 -3.1536 -4.75769 52.75457 -4.00428 61.31856 104.72854 89.3097 48.12444 -3.01591 31.30942 15.22686 -61.17748 90.36367 -33.60893 63.69294 8.24478 77.47752 11.26146 -12.06861 -71.19588 -24.10295 -2.06914 14.65722 74.62766 2.05801 19.11164 -58.08983 -26.17651 2.31065 -14.72589
0.37485 0.34166 0.01271 176.58782 0 -3.79871 14.74786 8.34983 0.86632 -25.61815 -3.44245 -4.48252 51.71577 -4.27853 61.07214 104.64563 87.9826 46.16787 -3.11812 29.7497 15.48583 -61.13572 89.66928 -33.45858 63.66349 8.27361 76.87839 11.46096 -12.07754 -71.17658 -22.4837 -1.87085 14.67076 74.17093 2.46982 19.3784 -58.64529 -26.11777 2.28135 -14.7958
0.37385 0.34232 0.01259 176.20609 0 -3.90921 14.05378 8.5581 1.10891 -23.679 -3.67217 -4.14357 50.68203 -4.44657 60.77367 104.06598 86.07239 44.5575 -3.27493 28.24132 15.67691 -61.08376 88.75832 -33.19492 63.67093 8.32225 76.25749 11.74079 -12.10596 -71.13682 -20.61171 -1.64676 14.68355 73.7291 2.97948 19.60694 -59.12037 -25.88757 2.26333 -14.75303
0.37284 0.34297 0.01252 175.87478 0 -4.00615 13.38019 8.75352 1.34097 -21.75875 -3.9236 -3.84177 49.61932 -4.65713 60.49079 103.67899 84.41539 42.78054 -3.41097 26.7042 15.90203 -61.03439 87.92885 -32.96355 63.61181 8.36791 75.6566 11.97061 -12.13459 -71.11099 -18.90654 -1.44084 14.6954 73.28004 3.43019 19.84775 -59.61598 -25.72411 2.23782 -14.7584
0.37186 0.34365 0.01241 175.49969 0 -4.11989 12.72384 8.97811 1.59265 -19.89125 -4.21376 -3.51102 48.67541 -4.87489 60.24085 103.42583 82.81071 41.02687 -3.53016 25.19568 16.1394 -60.99533 87.18344 -32.81581 63.75234 8.38729 75.01114 12.25667 -12.12626 -71.06761 -16.98027 -1.20871 14.70848 72.83019 3.94126 20.10915 -60.17488 -25.60635 2.22101 -14.7583
0.37084 0.34427 0.01236 175.1948 0 -4.20401 12.01444 9.14296 1.80414 -17.88229 -4.39452 -3.22556 47.47074 -5.06585 59.91338 102.78154 80.96644 39.30741 -3.69783 23.62711 16.31596 -60.92996 86.20103 -32.46395 63.49169 8.46745 74.45403 12.44563 -12.19857 -71.05519 -15.45027 -1.02415 14.72022 72.38773 4.35041 20.31872 -60.58552 -25.35277 2.18925 -14.74944
0.3697 0.34475 0.01246 175.10726 0 -4.19766 11.21599 9.1536 1.93204 -15.66129 -4.39124 -3.05318 45.70207 -5.12062 59.34596 101.13071 78.50551 37.6641 -3.98106 22.01752 16.45821 -60.81575 84.68472 -31.6008 62.09164 8.69845 74.14655 12.33833 -12.49443 -71.13269 -15.13738 -0.98367 14.73101 71.94744 4.45071 20.39718 -60.59312 -24.77125 2.11344 -14.74992
0.36852 0.34518 0.0126 175.09323 0 -4.16142 10.35883 9.1009 2.01403 -13.27567 -4.26147 -2.93265 43.64808 -5.16743 58.70839 99.1082 75.84818 36.03232 -4.31266 20.32687 16.51934 -60.67119 82.92258 -30.53128 60.29236 8.99238 73.92895 12.13207 -12.8694 -71.24182 -15.22189 -0.99071 14.74063 71.5168 4.44566 20.42432 -60.45684 -24.05777 2.02234 -14.74708
0.36736 0.34563 0.01272 175.04427 0 -4.14126 9.49807 9.06698 2.09716 -10.85246 -4.11803 -2.80524 41.61566 -5.28005 58.12889 97.29334 73.33269 34.35708 -4.62446 18.57663 16.53656 -60.52696 81.22949 -29.54041 58.69145 9.26511 73.67026 11.9767 -13.20463 -71.33658 -15.0852 -0.97174 14.74974 71.09176 4.49133 20.47358 -60.39605 -23.4023 1.93852 -14.74459
0.36618 0.34611 0.01287 174.99831 0 -4.11144 8.75889 9.07451 2.26299 -8.87966 -4.26482 -2.60504 40.01688 -5.13613 57.44022 95.31589 70.5416 32.86193 -4.92634 17.21091 16.88562 -60.44043 79.71449 -28.61054 57.01874 9.50635 73.41181 11.79931 -13.55746 -71.43081 -15.11002 -0.97053 14.76312 70.6259 4.52891 20.52723 -60.29123 -22.75125 1.85391 -14.74273
0.36503 0.3465 0.01297 174.96515 0 -4.09419 7.75874 8.98216 2.24671 -5.95787 -3.78815 -2.56989 37.47562 -5.51368 56.95894 93.57234 68.32744 30.98113 -5.26294 15.05483 16.53394 -60.22512 77.76621 -27.50474 55.40209 9.82908 73.17448 11.64303 -13.89102 -71.5337 -14.89729 -0.94393 14.7674 70.24611 4.5564 20.55922 -60.24315 -22.05917 1.76688 -14.7403
